Coordinates
version=1
nRows=8
nColumns=46
inDegrees=yes

Units are S.I. units (second, meters, Newtons, ...)
Angles are in degrees.

endheader
time	pelvis_tilt	pelvis_list	pelvis_rotation	pelvis_tx	pelvis_ty	pelvis_tz	bb_angle	bb_tx	bb_ty	bb_tz	hip_flexion_r	hip_adduction_r	hip_rotation_r	knee_angle_r	knee_angle_r_beta	ankle_angle_r	subtalar_angle_r	mtp_angle_r	crank_angle_r	hip_flexion_l	hip_adduction_l	hip_rotation_l	knee_angle_l	knee_angle_l_beta	ankle_angle_l	subtalar_angle_l	mtp_angle_l	crank_angle_l	lumbar_extension	lumbar_bending	lumbar_rotation	arm_flex_r	arm_add_r	arm_rot_r	elbow_flex_r	pro_sup_r	wrist_flex_r	wrist_dev_r	arm_flex_l	arm_add_l	arm_rot_l	elbow_flex_l	pro_sup_l	wrist_flex_l	wrist_dev_l
      2.50000000	    -20.60226698	      7.93034058	     -5.92160607	      0.30204707	      1.12475170	     -0.30445866	      0.00000000	      0.50000000	      0.00000000	      0.25000000	     37.14991009	     -9.89962270	      4.97599796	     30.48845977	      0.53212401	     -3.18484026	     -4.24461288	      0.00000000	      0.00000000	     66.15786584	     -2.94723869	     -5.16278902	    108.26853298	      1.88964238	    -14.02891892	     -7.73457361	      0.00000000	      0.00000000	    -54.84415379	     -7.01764784	      6.67979345	     40.77541720	    -29.25970772	      7.14771949	     87.62942638	     50.76235939	      0.00000000	      0.00000000	     53.31866040	     -8.20801013	     24.82784336	     63.85606036	     48.57435450	      0.00000000	      0.00000000
      2.50500000	    -20.74493830	      8.56614611	     -5.07613909	      0.30275431	      1.12431365	     -0.30377934	      0.00000000	      0.50000000	      0.00000000	      0.25000000	     36.14378834	    -10.97777145	      4.34595955	     29.13390282	      0.50848253	     -4.17184128	     -4.08235438	      0.00000000	      0.00000000	     67.31885234	     -2.40667833	     -5.39581534	    109.18893196	      1.90570637	    -13.47610124	     -7.30471729	      0.00000000	      0.00000000	    -54.65020378	     -7.39956451	      5.89998310	     40.17855644	    -29.55838928	      7.05290761	     87.31407697	     50.70585040	      0.00000000	      0.00000000	     53.42855296	     -7.95167589	     25.05971216	     63.81821466	     48.59493326	      0.00000000	      0.00000000
      2.51000000	    -20.96288238	      9.13811085	     -4.28595257	      0.30318935	      1.12412990	     -0.30279367	      0.00000000	      0.50000000	      0.00000000	      0.25000000	     35.21373516	    -11.88508029	      3.81517068	     27.83073165	      0.48573790	     -4.95359881	     -3.91271363	      0.00000000	      0.00000000	     68.52575406	     -2.02075199	     -5.65143090	    110.03152361	      1.92041237	    -12.89028143	     -7.10765121	      0.00000000	      0.00000000	    -54.49948323	     -7.84148171	      5.21541277	     39.77633546	    -29.87971403	      6.91555336	     87.09764228	     50.66511619	      0.00000000	      0.00000000	     53.70995136	     -7.84326232	     25.13345596	     63.75957407	     48.59626821	      0.00000000	      0.00000000
      2.51500000	    -21.18323695	      9.67908097	     -3.26853430	      0.30364545	      1.12442393	     -0.30206429	      0.00000000	      0.50000000	      0.00000000	      0.25000000	     34.22609430	    -12.89288706	      3.04356615	     26.54034060	      0.46321633	     -6.13775176	     -3.87047862	      0.00000000	      0.00000000	     69.68731141	     -1.42453205	     -5.83142041	    110.70261688	      1.93212516	    -12.30038466	     -6.77687273	      0.00000000	      0.00000000	    -54.42545002	     -8.03913650	      4.43766003	     39.23201446	    -30.16458507	      6.78221303	     86.82777566	     50.61910843	      0.00000000	      0.00000000	     54.01182842	     -7.55651017	     25.38115881	     63.65971925	     48.61026894	      0.00000000	      0.00000000
      2.52000000	    -21.31038752	     10.05019885	     -2.10094156	      0.30415697	      1.12520670	     -0.30142160	      0.00000000	      0.50000000	      0.00000000	      0.25000000	     33.03985559	    -13.81046814	      1.89629636	     25.28439852	      0.44129600	     -7.34425449	     -4.02426201	      0.00000000	      0.00000000	     70.73682671	     -0.79392724	     -5.82315529	    111.27666769	      1.94214423	    -11.73817769	     -6.26904172	      0.00000000	      0.00000000	    -54.51536912	     -8.06118908	      3.74051819	     38.67677239	    -30.54293722	      6.46124790	     86.56468455	     50.55899144	      0.00000000	      0.00000000	     54.44048382	     -7.20495080	     25.89499072	     63.31120738	     48.61805892	      0.00000000	      0.00000000
      2.52500000	    -21.44731876	     10.33422361	     -0.95887765	      0.30442501	      1.12626200	     -0.30063682	      0.00000000	      0.50000000	      0.00000000	      0.25000000	     31.86580669	    -14.58372237	      0.80812249	     24.06906398	      0.42008441	     -8.55352034	     -4.04607090	      0.00000000	      0.00000000	     71.77514268	     -0.22501386	     -5.75973247	    111.78636992	      1.95104021	    -11.04098501	     -5.92997785	      0.00000000	      0.00000000	    -54.65549299	     -8.11433614	      3.94556247	     37.30517004	    -31.53374660	      4.91093233	     87.06109656	     50.54582736	      0.00000000	      0.00000000	     56.02952384	     -6.27034304	     28.15548188	     61.27576591	     48.61178541	      0.00000000	      0.00000000
      2.53000000	    -21.76620202	     10.66283032	      0.24738455	      0.30446564	      1.12755469	     -0.29981969	      0.00000000	      0.50000000	      0.00000000	      0.25000000	     30.94845853	    -15.36986658	     -0.22835579	     22.98150865	      0.40110299	     -9.92349855	     -4.23722665	      0.00000000	      0.00000000	     72.97958222	      0.41715515	     -5.78383524	    112.09181998	      1.95637132	    -10.82065369	     -5.54907331	      0.00000000	      0.00000000	    -54.75785946	     -8.10486792	      3.20825079	     36.96115001	    -32.13505662	      4.76662522	     87.04899736	     50.54410109	      0.00000000	      0.00000000	     56.57883442	     -5.77586681	     28.95480842	     61.21504049	     48.70430826	      0.00000000	      0.00000000
      2.53500000	    -22.12559269	     11.04327831	      1.45332220	      0.30455636	      1.12918913	     -0.29879093	      0.00000000	      0.50000000	      0.00000000	      0.25000000	     30.09376217	    -16.17158155	     -1.22356832	     21.94364628	      0.38298888	    -11.38044285	     -4.37166956	      0.00000000	      0.00000000	     74.13112015	      1.05948043	     -5.88248703	    112.26354754	      1.95936853	    -10.35303489	     -5.08395514	      0.00000000	      0.00000000	    -54.87864865	     -8.16718494	      2.87490550	     35.96925300	    -32.81990956	      3.85754105	     87.40142063	     50.55906454	      0.00000000	      0.00000000	     57.62839884	     -5.49529167	     30.70377509	     60.50426039	     48.83890054	      0.00000000	      0.00000000
